<?xml version="1.0" encoding="UTF-8"?>
<svg width="24px" height="24px" viewBox="0 0 24 24" version="1.1" xmlns="http://www.w3.org/2000/svg" xmlns:xlink="http://www.w3.org/1999/xlink">
    <!-- Generator: Sketch 52.6 (67491) - http://www.bohemiancoding.com/sketch -->
    <title>Combined shape 8134</title>
    <desc>Created with Sketch.</desc>
    <defs>
        <path d="M110.999952,2.004212 C116.525088,2.004212 121.004328,6.479364 121.004328,11.99978 C121.004328,17.519756 116.525088,21.995348 110.999952,21.995348 C105.474336,21.995348 100.995648,17.519756 100.995648,11.99978 C100.995648,6.479364 105.474336,2.004212 110.999952,2.004212 Z M119.29848,11.9692 C119.291112,9.928458 118.539336,8.062814 117.304512,6.62001 C115.97772,8.231312 114.272112,9.326428 112.491624,10.068884 C112.739736,10.605926 112.98576,11.172382 113.226816,11.774654 C114.004392,11.622436 114.835512,11.534106 115.727376,11.534326 C116.829696,11.534326 118.022904,11.674752 119.29848,11.9692 Z M116.079,5.551162 C114.627,4.307238 113.057976,3.706572 110.999952,3.706572 C110.2392,3.706572 109.506168,3.818464 108.806016,4.010084 C109.501512,4.858536 110.542848,6.266668 111.776592,8.695644 C113.480592,8.00029 114.918024,7.035414 116.079,5.551162 Z M107.52804,4.477122 C105.17268,5.567024 103.537272,7.396676 102.999984,9.999804 C103.219896,10.010452 103.566168,10.01681 103.999944,9.999804 C105.606456,9.947268 107.804424,10.027678 110.438496,9.190534 C109.070712,6.530778 108.052536,5.075984 107.52804,4.477122 Z M102.699576,11.99978 C102.699576,14.168056 103.54284,16.137452 104.910696,17.61671 C105.271248,17.023964 106.036584,15.908014 107.273568,14.782758 C108.414696,13.743368 109.975584,12.700788 111.974112,12.086988 C111.749304,11.533644 111.52128,11.009318 111.290976,10.515088 C108.401688,11.469778 105.499296,11.61225 103.857288,11.622436 C103.344936,11.622436 102.955584,11.607036 102.720168,11.594584 C102.713448,11.729576 102.699576,11.862984 102.699576,11.99978 Z M105.869592,18.50639 C107.283336,19.621878 109.063104,20.292988 110.999952,20.292988 C112.119624,20.292988 113.187216,20.067642 114.163248,19.663568 C113.71476,17.246604 113.106552,15.119336 112.434288,13.278816 C108.492336,14.454804 106.456392,17.508888 105.933768,18.394938 C105.907632,18.440016 105.88704,18.475348 105.869592,18.50639 Z M115.348392,19.049988 C117.37488,17.798122 118.819752,15.70392 119.194488,13.256618 C117.93744,12.951764 116.780256,12.810876 115.727376,12.810876 C115.003032,12.809512 114.323712,12.873378 113.685144,12.984148 C114.325032,14.757392 114.905784,16.77708 115.348392,19.049988 Z" id="path-1"></path>
        <filter x="-6.3%" y="-6.8%" width="112.5%" height="122.7%" filterUnits="objectBoundingBox" id="filter-2">
            <feOffset dx="0" dy="1" in="SourceAlpha" result="shadowOffsetOuter1"></feOffset>
            <feGaussianBlur stdDeviation="1" in="shadowOffsetOuter1" result="shadowBlurOuter1"></feGaussianBlur>
            <feColorMatrix values="0 0 0 0 0   0 0 0 0 0   0 0 0 0 0  0 0 0 0.5 0" type="matrix" in="shadowBlurOuter1"></feColorMatrix>
        </filter>
    </defs>
    <g id="Page-1" stroke="none" stroke-width="1" fill="none" fill-rule="evenodd">
        <g id="Artboard-Copy" transform="translate(-661.000000, -375.000000)">
            <g id="design" transform="translate(-37.000000, -1.000000)">
                <g id="header" transform="translate(36.000000, 0.000000)">
                    <g id="social" transform="translate(563.000000, 375.000000)">
                        <g id="Combined-shape-8134">
                            <use fill="black" fill-opacity="1" filter="url(#filter-2)" xlink:href="#path-1"></use>
                            <use fill="#FFFFFF" fill-rule="evenodd" xlink:href="#path-1"></use>
                        </g>
                    </g>
                </g>
            </g>
        </g>
    </g>
</svg>