<?xml version="1.0" encoding="UTF-8"?>
<svg width="28px" height="23px" viewBox="0 0 28 23" version="1.1" xmlns="http://www.w3.org/2000/svg" xmlns:xlink="http://www.w3.org/1999/xlink">
    <!-- Generator: Sketch 55.2 (78181) - https://sketchapp.com -->
    <title>envelope</title>
    <desc>Created with Sketch.</desc>
    <g id="Page-1" stroke="none" stroke-width="1" fill="none" fill-rule="evenodd">
        <g id="Artboard-Copy" transform="translate(-521.000000, -5747.000000)" fill="#EABA28">
            <g id="envelope" transform="translate(521.000000, 5747.000000)">
                <path d="M2.68548437,6.82111719 C3.03942187,7.070875 4.10632031,7.81265625 5.88623437,9.04607813 C7.66620312,10.2795 9.02978125,11.2292031 9.97702344,11.8952422 C10.0810937,11.96825 10.3021953,12.1269531 10.6404375,12.3715703 C10.9787344,12.6163516 11.2598281,12.8141563 11.4835,12.9650391 C11.7073359,13.1158672 11.9779297,13.2850703 12.2955547,13.472375 C12.6130703,13.6595156 12.912375,13.8002812 13.1934141,13.8934688 C13.4745078,13.9874219 13.7347109,14.0339609 13.9740781,14.0339609 L13.9897734,14.0339609 L14.0055234,14.0339609 C14.2448906,14.0339609 14.5052031,13.9873672 14.7862969,13.8934688 C15.0672266,13.8002812 15.3668047,13.6593516 15.6840469,13.472375 C16.0014531,13.2848516 16.2720469,13.1158125 16.4958828,12.9650391 C16.7197187,12.8141563 17.0005937,12.6163516 17.339,12.3715703 C17.6771875,12.1267344 17.8985625,11.96825 18.0026328,11.8952422 C18.9601016,11.2292031 21.3960469,9.53766406 25.3097031,6.82078906 C26.0695312,6.29015625 26.7043437,5.649875 27.2143047,4.90038281 C27.7246484,4.15121875 27.9795469,3.36530469 27.9795469,2.54307813 C27.9795469,1.85598438 27.7321953,1.26782031 27.2377109,0.778640625 C26.7432812,0.289351563 26.1576875,0.04484375 25.4813125,0.04484375 L2.49807031,0.04484375 C1.696625,0.04484375 1.07985937,0.3154375 0.647882812,0.856625 C0.215960937,1.39792188 0,2.07451563 0,2.88635156 C0,3.54210938 0.28634375,4.25271875 0.858757812,5.01774219 C1.43111719,5.78282031 2.04022656,6.384 2.68548437,6.82111719 Z" id="Path"></path>
                <path d="M26.418,8.49160156 C23.0041875,10.8022031 20.412,12.5979219 18.6426953,13.878375 C18.0493906,14.3153828 17.5680859,14.6565234 17.1984531,14.9009766 C16.8288203,15.1455938 16.3372344,15.3954063 15.7229844,15.6503047 C15.1089531,15.9055859 14.5367031,16.0328438 14.0057422,16.0328438 L13.9898281,16.0328438 L13.9741328,16.0328438 C13.4432812,16.0328438 12.8707031,15.9055859 12.2566719,15.6503047 C11.6426406,15.3954063 11.1507266,15.1455938 10.7812031,14.9009766 C10.4117891,14.6565234 9.93032031,14.3153828 9.33707031,13.878375 C7.93176562,12.8479531 5.34515625,11.052125 1.57713281,8.49160156 C0.983664062,8.09632031 0.458007812,7.64323438 0,7.13327344 L0,19.5301094 C0,20.2175313 0.244507812,20.8053672 0.733796875,21.2946016 C1.22297656,21.784 1.81119531,22.0286172 2.49823437,22.0286172 L25.4815312,22.0286172 C26.1684062,22.0286172 26.7565703,21.784 27.2458047,21.2946016 C27.7352031,20.8052031 27.9796016,20.2175859 27.9796016,19.5301094 L27.9796016,7.13327344 C27.5319297,7.63267969 27.0116328,8.08576563 26.418,8.49160156 Z" id="Path"></path>
            </g>
        </g>
    </g>
</svg>