<?xml version="1.0" encoding="UTF-8"?>
<svg width="16px" height="10px" viewBox="0 0 16 10" version="1.1" xmlns="http://www.w3.org/2000/svg" xmlns:xlink="http://www.w3.org/1999/xlink">
    <!-- Generator: Sketch 52.6 (67491) - http://www.bohemiancoding.com/sketch -->
    <title>Shape</title>
    <desc>Created with Sketch.</desc>
    <g id="Page-1" stroke="none" stroke-width="1" fill="none" fill-rule="evenodd">
        <g id="Desktop-Copy-10" transform="translate(-384.000000, -2170.000000)" fill="#FFFFFF" fill-rule="nonzero">
            <g id="our-products" transform="translate(42.000000, 1917.000000)">
                <g id="eye" transform="translate(342.000000, 253.000000)">
                    <path d="M15.8153753,4.33779891 C14.249128,1.73774457 11.3280496,0 7.99999963,0 C4.67056081,0 1.7501213,1.73896739 0.184623944,4.33779891 C-0.0615413148,4.74643584 -0.0615413148,5.25359133 0.184623944,5.66222826 C1.7508713,8.26225543 4.6719497,10 7.99999963,10 C11.3294384,10 14.249878,8.26103261 15.8153753,5.66220109 C16.0615416,5.25357416 16.0615416,4.74642584 15.8153753,4.33779891 Z M8.38095238,9.23076923 C6.27557423,9.23076923 4.57142857,7.51054864 4.57142857,5.38461538 C4.57142857,3.25899321 6.2752381,1.53846154 8.38095238,1.53846154 C10.4863305,1.53846154 12.1904762,3.25865385 12.1904762,5.38461538 C12.1904762,7.51023756 10.4866667,9.23076923 8.38095238,9.23076923 Z M11.4285714,5 C11.4285714,6.48693047 10.0641172,7.69230769 8.38095238,7.69230769 C6.69778755,7.69230769 5.33333333,6.48693047 5.33333333,5 C5.33333333,4.54158284 5.46317949,4.11001109 5.69189744,3.73220784 L5.69186813,3.73303624 C5.69186813,4.34530325 6.25371429,4.84161982 6.94678388,4.84161982 C7.63985348,4.84161982 8.20169963,4.34527737 8.20169963,3.73303624 C8.20169963,3.12076923 7.63985348,2.62442678 6.94678388,2.62442678 L6.94584615,2.62445266 C7.37350916,2.42240015 7.86203663,2.30769231 8.38095238,2.30769231 C10.0641172,2.30769231 11.4285714,3.51306953 11.4285714,5 Z" id="Shape"></path>
                </g>
            </g>
        </g>
    </g>
</svg>