<?xml version="1.0" encoding="UTF-8"?>
<svg width="24px" height="35px" viewBox="0 0 24 35" version="1.1" xmlns="http://www.w3.org/2000/svg" xmlns:xlink="http://www.w3.org/1999/xlink">
    <!-- Generator: Sketch 55.2 (78181) - https://sketchapp.com -->
    <title>facebook-placeholder-for-locate-places-on-maps</title>
    <desc>Created with Sketch.</desc>
    <g id="Page-1" stroke="none" stroke-width="1" fill="none" fill-rule="evenodd">
        <g id="Artboard-Copy" transform="translate(-887.000000, -5734.000000)" fill="#EABA28" fill-rule="nonzero">
            <g id="facebook-placeholder-for-locate-places-on-maps" transform="translate(887.000000, 5734.000000)">
                <path d="M23.3724564,8.62155705 C23.2491544,8.15943624 22.9987651,7.66703356 22.8135302,7.23591946 C20.5969933,1.90904698 15.753906,0 11.8433557,0 C6.60837584,0 0.842657718,3.51028188 0.072885906,10.7457987 L0.072885906,12.2240537 C0.072885906,12.285745 0.094147651,12.8399195 0.124348993,13.1171275 C0.555865772,16.565396 3.27680537,20.2301477 5.30891275,23.6784161 C7.49516779,27.3728859 9.76373154,31.0071946 12.0112752,34.6399732 C13.3971544,32.2692886 14.7780403,29.8674362 16.132349,27.5581208 C16.5014497,26.8804027 16.929906,26.2030872 17.2994094,25.5562148 C17.5456913,25.1255034 18.0161879,24.6947919 18.2311409,24.2940403 C20.4173154,20.2914362 23.9362148,16.257906 23.9362148,12.2856644 L23.9362148,10.6538255 C23.9362148,10.2231946 23.4024966,8.71441611 23.3724564,8.62155705 Z M11.9391946,16.0423893 C10.4003758,16.0423893 8.71602685,15.2729396 7.8846443,13.1479732 C7.76077852,12.8097181 7.7707651,12.1318389 7.7707651,12.069745 L7.7707651,11.1152215 C7.7707651,8.40628188 10.0708993,7.17438926 12.0719195,7.17438926 C14.5353826,7.17438926 16.4406443,9.14528859 16.4406443,11.6087517 C16.4406443,14.0721342 14.4026577,16.0423893 11.9391946,16.0423893 Z" id="Facebook_Places"></path>
            </g>
        </g>
    </g>
</svg>