<?xml version="1.0" encoding="UTF-8"?>
<svg width="28px" height="28px" viewBox="0 0 28 28" version="1.1" xmlns="http://www.w3.org/2000/svg" xmlns:xlink="http://www.w3.org/1999/xlink">
    <!-- Generator: Sketch 55.2 (78181) - https://sketchapp.com -->
    <title>telephone (2)</title>
    <desc>Created with Sketch.</desc>
    <g id="Page-1" stroke="none" stroke-width="1" fill="none" fill-rule="evenodd">
        <g id="Artboard-Copy" transform="translate(-175.000000, -5745.000000)" fill="#EABA28">
            <g id="telephone-(2)" transform="translate(175.000000, 5745.000000)">
                <path d="M21.2680083,18.5056133 C20.354079,17.6033264 19.2131227,17.6033264 18.3050146,18.5056133 C17.6122911,19.1925156 16.9195676,19.8794179 16.2384865,20.5779626 C16.0522079,20.7700624 15.8950353,20.8108108 15.6680083,20.6827443 C15.2197755,20.4382536 14.7424366,20.2403326 14.3116674,19.9725572 C12.3033514,18.7093555 10.6210229,17.0852391 9.13079418,15.2573805 C8.39150104,14.3492723 7.73370478,13.377131 7.27382952,12.2827443 C7.18069023,12.0615385 7.19815385,11.9160083 7.37861123,11.7355509 C8.07133472,11.0661123 8.74659459,10.37921 9.42767568,9.69230769 C10.3765322,8.73762994 10.3765322,7.61995842 9.42185447,6.65945946 C8.88048233,6.11226611 8.33911019,5.57671518 7.79773805,5.02952183 C7.23890229,4.47068607 6.68588773,3.90602911 6.12123077,3.35301455 C5.20730146,2.46237006 4.06634511,2.46237006 3.15823701,3.35883576 C2.45969231,4.04573805 1.79025364,4.75010395 1.08006653,5.42536383 C0.42227027,6.04823285 0.0904615385,6.81081081 0.0206070686,7.7014553 C-0.089995842,9.15093555 0.265097713,10.5189189 0.765721414,11.8519751 C1.79025364,14.6112266 3.3503368,17.0619543 5.24222869,19.3089397 C7.79773805,22.3476091 10.8480499,24.7517672 14.4164491,26.4864865 C16.0231019,27.2665281 17.6879667,27.8661123 19.4983617,27.9650728 C20.7440998,28.0349272 21.8268441,27.7205821 22.6942037,26.7484407 C23.2879667,26.0848233 23.9574054,25.4794179 24.5860956,24.8449064 C25.5174886,23.9018711 25.5233098,22.7609148 24.597738,21.8295218 C23.4917089,20.7176715 22.3798586,19.6116424 21.2680083,18.5056133 Z" id="Path"></path>
                <path d="M20.156158,13.8661123 L22.304183,13.4993763 C21.966553,11.5259875 21.0351601,9.73887734 19.6206071,8.31850312 C18.1245572,6.82245322 16.2326653,5.87941788 14.1486736,5.58835759 L13.8459709,7.74802495 C15.4584449,7.97505198 16.9253888,8.7027027 18.0838087,9.86112266 C19.1781954,10.9555094 19.8942037,12.3409563 20.156158,13.8661123 Z" id="Path"></path>
                <path d="M23.5149938,4.52889813 C21.0351601,2.04906445 17.8975301,0.483160083 14.4339127,0 L14.13121,2.15966736 C17.1233098,2.57879418 19.8359917,3.93513514 21.9781954,6.07151767 C24.0097963,8.1031185 25.3428524,10.6702703 25.8260125,13.4935551 L27.9740374,13.1268191 C27.4093805,9.85530146 25.8667609,6.88648649 23.5149938,4.52889813 Z" id="Path"></path>
            </g>
        </g>
    </g>
</svg>