<?xml version="1.0" encoding="UTF-8"?>
<svg width="28px" height="24px" viewBox="0 0 28 24" version="1.1" xmlns="http://www.w3.org/2000/svg" xmlns:xlink="http://www.w3.org/1999/xlink">
    <!-- Generator: Sketch 52.6 (67491) - http://www.bohemiancoding.com/sketch -->
    <title>twitter</title>
    <desc>Created with Sketch.</desc>
    <defs>
        <path d="M63.324252,2.000832 C65.231505,1.966392 66.24657,2.680776 67.21614,3.589488 C68.039127,3.516768 69.108759,3.043848 69.738723,2.715192 C69.942897,2.600136 70.147152,2.485296 70.351326,2.37024 C69.99147,3.370464 69.503607,4.152768 68.753709,4.746888 C68.5872,4.878696 68.421906,5.056944 68.213169,5.140752 L68.213169,5.153208 C69.281694,5.14188 70.162947,4.646544 70.999947,4.377456 L70.999947,4.389696 C70.56036,5.108376 69.96528,5.837232 69.330294,6.36 C69.074118,6.56928 68.81778,6.77856 68.56155,6.98784 C68.575563,8.151144 68.544891,9.260976 68.333346,10.238544 C67.103631,15.921144 63.845433,19.778616 58.68765,21.431376 C56.835585,22.0248 53.842608,22.268736 51.720732,21.72696 C50.66838,21.458328 49.717791,21.15528 48.825765,20.754144 C48.330315,20.53128 47.871369,20.290272 47.43243,20.015544 C47.288304,19.92516 47.144097,19.8348 46.999971,19.744416 C47.4786,19.759152 48.038526,19.894824 48.573558,19.806024 C49.057614,19.72584 49.532355,19.746696 49.978908,19.646112 C51.092793,19.394712 52.081722,19.062432 52.933923,18.550104 C53.346915,18.301848 53.97372,18.009672 54.267237,17.651352 C53.714061,17.661552 53.212644,17.529504 52.801812,17.380464 C51.20892,16.802208 50.281902,15.739032 49.678668,14.142 C50.161239,14.196144 51.551658,14.325456 51.876873,14.04348 C51.269211,14.00904 50.684823,13.647096 50.267241,13.378488 C48.98601,12.554016 47.941029,11.171712 47.94894,9.044208 C48.117096,9.126216 48.285225,9.20844 48.453462,9.290424 C48.775248,9.429936 49.102461,9.504696 49.486428,9.586008 C49.648671,9.620208 49.972887,9.718512 50.15916,9.647616 L50.13513,9.647616 C49.887162,9.350904 49.483323,9.153168 49.234194,8.834928 C48.412152,7.784448 47.641788,6.167472 48.129084,4.242024 C48.25269,3.753696 48.448791,3.3222 48.657636,2.924472 C48.665601,2.928552 48.673674,2.932848 48.681639,2.936712 C48.777273,3.142824 48.990816,3.293904 49.126113,3.466272 C49.545855,4.001016 50.06385,4.482552 50.591511,4.906776 C52.389576,6.352752 54.008901,7.241064 56.609541,7.899048 C57.269259,8.065968 58.03182,8.193504 58.819761,8.194632 C58.598388,7.531896 58.669533,6.459432 58.843791,5.818224 C59.282055,4.205328 60.233967,3.04248 61.630569,2.419608 C61.964532,2.270592 62.334918,2.162304 62.723664,2.074896 C62.923896,2.0502 63.124128,2.025744 63.324252,2.000832 Z" id="path-1"></path>
        <filter x="-5.6%" y="-1.8%" width="114.8%" height="112.4%" filterUnits="objectBoundingBox" id="filter-2">
            <feOffset dx="0" dy="1" in="SourceAlpha" result="shadowOffsetOuter1"></feOffset>
            <feGaussianBlur stdDeviation="1" in="shadowOffsetOuter1" result="shadowBlurOuter1"></feGaussianBlur>
            <feColorMatrix values="0 0 0 0 0   0 0 0 0 0   0 0 0 0 0  0 0 0 0.5 0" type="matrix" in="shadowBlurOuter1"></feColorMatrix>
        </filter>
    </defs>
    <g id="Page-1" stroke="none" stroke-width="1" fill="none" fill-rule="evenodd">
        <g id="Artboard-Copy" transform="translate(-607.000000, -375.000000)">
            <g id="design" transform="translate(-37.000000, -1.000000)">
                <g id="header" transform="translate(36.000000, 0.000000)">
                    <g id="social" transform="translate(563.000000, 375.000000)">
                        <g id="twitter">
                            <use fill="black" fill-opacity="1" filter="url(#filter-2)" xlink:href="#path-1"></use>
                            <use fill="#FFFFFF" fill-rule="evenodd" xlink:href="#path-1"></use>
                        </g>
                    </g>
                </g>
            </g>
        </g>
    </g>
</svg>